<svg xmlns="http://www.w3.org/2000/svg" viewBox="0 0 32 32" width="32" height="32">
  <defs>
    <mask id="hub-cutout">
      <rect width="32" height="32" fill="white"/>
      <text x="16.5" y="20"
            text-anchor="middle"
            font-family="Helvetica Neue, Arial, sans-serif"
            font-weight="900"
            font-size="8.5"
            fill="black">K</text>
    </mask>
  </defs>
  <!-- Outer ring -->
  <circle cx="16" cy="16" r="13.5" fill="none" stroke="black" stroke-width="2"/>
  <!-- Spokes -->
  <line x1="16.00" y1="10.20" x2="16.00" y2="4.80" stroke="black" stroke-width="1.8" stroke-linecap="round"/>
  <line x1="20.53" y1="12.38" x2="24.76" y2="9.02" stroke="black" stroke-width="1.8" stroke-linecap="round"/>
  <line x1="21.65" y1="17.29" x2="26.92" y2="18.49" stroke="black" stroke-width="1.8" stroke-linecap="round"/>
  <line x1="18.52" y1="21.23" x2="20.86" y2="26.09" stroke="black" stroke-width="1.8" stroke-linecap="round"/>
  <line x1="13.48" y1="21.23" x2="11.14" y2="26.09" stroke="black" stroke-width="1.8" stroke-linecap="round"/>
  <line x1="10.35" y1="17.29" x2="5.08" y2="18.49" stroke="black" stroke-width="1.8" stroke-linecap="round"/>
  <line x1="11.47" y1="12.38" x2="7.24" y2="9.02" stroke="black" stroke-width="1.8" stroke-linecap="round"/>
  <!-- Tip handles -->
  <circle cx="16.00" cy="2.50" r="1.7" fill="black"/>
  <circle cx="26.55" cy="7.58" r="1.7" fill="black"/>
  <circle cx="29.16" cy="19.00" r="1.7" fill="black"/>
  <circle cx="21.86" cy="28.16" r="1.7" fill="black"/>
  <circle cx="10.14" cy="28.16" r="1.7" fill="black"/>
  <circle cx="2.84" cy="19.00" r="1.7" fill="black"/>
  <circle cx="5.45" cy="7.58" r="1.7" fill="black"/>
  <!-- Hub with K cut out -->
  <circle cx="16" cy="16" r="5.5" fill="black" mask="url(#hub-cutout)"/>
</svg>